<svg xmlns="http://www.w3.org/2000/svg" width="64" height="64" viewBox="-83.5 116.5 100 100"><path fill="#F0C829" d="M12.641 127.833h-64.032a1.86 1.86 0 0 0-1.86 1.86v36.992h-16.993a1.86 1.86 0 0 0-1.861 1.86v31.536c0 6.232 5.055 11.287 11.287 11.287H3.214c6.231 0 11.286-5.055 11.286-11.287v-70.389a1.86 1.86 0 0 0-1.859-1.859z"/><path d="M3.242 121.631h-64.061a1.86 1.86 0 0 0-1.859 1.86v36.993H-79.64a1.86 1.86 0 0 0-1.86 1.859v31.535c0 6.235 5.053 11.287 11.287 11.287h64.032c6.232 0 11.287-5.052 11.287-11.287V123.49a1.862 1.862 0 0 0-1.864-1.859zm-81.021 72.248v-29.674h15.101v29.674a7.565 7.565 0 1 1-15.131 0h.03zm79.162 0a7.564 7.564 0 0 1-7.564 7.567h-55.691a11.221 11.221 0 0 0 2.915-7.567v-68.526h60.34v68.526z"/><path d="M-31.39 143.119h23.841a1.86 1.86 0 1 0 0-3.72H-31.39a1.861 1.861 0 1 0 0 3.72zm0 20.435h23.841c1.029 0 1.863-.833 1.863-1.86s-.834-1.86-1.863-1.86H-31.39c-1.029 0-1.863.833-1.863 1.86s.834 1.86 1.863 1.86zm0 20.435h23.841a1.861 1.861 0 1 0 0-3.722H-31.39a1.862 1.862 0 1 0 0 3.722zm-17.18-38.761c.354.378.848.591 1.364.589h.032a1.857 1.857 0 0 0 1.364-.619l10.233-11.193a1.868 1.868 0 0 0-.125-2.637 1.865 1.865 0 0 0-2.635.124l-8.899 9.705-2.759-2.913a1.86 1.86 0 1 0-2.698 2.54l4.123 4.404zm10.202 7.598l-8.869 9.705-2.759-2.916a1.867 1.867 0 0 0-2.637-.093 1.868 1.868 0 0 0-.093 2.636l4.125 4.371c.352.379.848.593 1.364.591h.031a1.854 1.854 0 0 0 1.364-.62l10.233-11.193a1.867 1.867 0 0 0-2.759-2.514v.033zm0 21.331l-8.869 9.706-2.759-2.915a1.859 1.859 0 0 0-2.627.151 1.86 1.86 0 0 0-.071 2.394l4.123 4.37c.354.379.848.592 1.364.592h.032a1.854 1.854 0 0 0 1.364-.624l10.233-11.19a1.867 1.867 0 0 0-2.76-2.513l-.03.029z"/></svg>