<svg xmlns="http://www.w3.org/2000/svg" xmlns:xlink="http://www.w3.org/1999/xlink"><symbol viewBox="0 0 32 26" id="close_all" xmlns="http://www.w3.org/2000/svg"><path d="M16 6.9l8.6 7.6H30L16 2 2 14.5h5.4z"/><path d="M2 24l14-12.5L30 24H2z"/></symbol><symbol viewBox="0 0 24 24" id="copy" xmlns="http://www.w3.org/2000/svg"><path d="M20 23h-9c-1.7 0-3-1.3-3-3v-9c0-1.7 1.3-3 3-3h9c1.7 0 3 1.3 3 3v9c0 1.7-1.3 3-3 3zm-9-13c-.6 0-1 .4-1 1v9c0 .6.4 1 1 1h9c.6 0 1-.4 1-1v-9c0-.6-.4-1-1-1h-9z"/><path d="M5 16H4c-1.7 0-3-1.3-3-3V4c0-1.7 1.3-3 3-3h9c1.7 0 3 1.3 3 3v1c0 .6-.4 1-1 1s-1-.4-1-1V4c0-.6-.4-1-1-1H4c-.6 0-1 .4-1 1v9c0 .6.4 1 1 1h1c.6 0 1 .4 1 1s-.4 1-1 1z"/></symbol><symbol viewBox="0 0 24 20" id="courriel" xmlns="http://www.w3.org/2000/svg"><path d="M20 1H4C2.348 1 1 2.348 1 4v12c0 1.652 1.348 3 3 3h16c1.652 0 3-1.348 3-3V4c0-1.652-1.348-3-3-3zM4 3h16c.388 0 .72.232.885.56L12 9.78 3.115 3.56A.997.997 0 0 1 4 3zm16 14H4c-.548 0-1-.452-1-1V5.921l8.427 5.899c.344.24.802.24 1.146 0L21 5.921V16c0 .548-.452 1-1 1z"/></symbol><symbol viewBox="0 0 24 24" id="download" xmlns="http://www.w3.org/2000/svg"><path d="M21 14a1 1 0 0 0-1 1v4a1 1 0 0 1-1 1H5a1 1 0 0 1-1-1v-4a1 1 0 1 0-2 0v4a3 3 0 0 0 3 3h14c1.656 0 3-1.344 3-3v-4a1 1 0 0 0-1-1z"/><path d="M11.264 15.664A.987.987 0 0 0 12 16a.985.985 0 0 0 .736-.336L17.7 10.7a.999.999 0 0 0-1.4-1.4L13 12.6V3a1 1 0 1 0-2 0v9.6L7.7 9.3a.999.999 0 0 0-1.4 1.4l4.964 4.964z"/></symbol><symbol viewBox="0 0 22 22" id="externe" xmlns="http://www.w3.org/2000/svg"><path d="M18 13a1 1 0 0 0-1 1v4a1 1 0 0 1-1 1H4a1 1 0 0 1-1-1V6a1 1 0 0 1 1-1h4a1 1 0 0 0 0-2H4a3 3 0 0 0-3 3v12a3 3 0 0 0 3 3h12c1.656 0 3-1.344 3-3v-4a1 1 0 0 0-1-1z"/><path d="M20 1h-6a1 1 0 1 0 0 2h3.586l-9.293 9.293-.024.023a1 1 0 0 0 1.438 1.391L19 4.414V8a1 1 0 1 0 2 0V2a1 1 0 0 0-1-1z"/></symbol><symbol viewBox="0 0 24 24" id="filter" xmlns="http://www.w3.org/2000/svg"><path d="M22.907 2.579A1 1 0 0 0 22 2H2a1 1 0 0 0-.763 1.645L9 12.826V19c0 .379.214.725.553.895l4 2a1.005 1.005 0 0 0 .972-.044c.295-.183.475-.504.475-.851v-8.174l7.764-9.181a1 1 0 0 0 .143-1.066zm-9.671 9.235c-.152.181-.236.41-.236.646v6.922l-2-1V12.46c0-.236-.084-.465-.236-.646L4.155 4h15.689l-6.608 7.814z"/></symbol><symbol viewBox="0 0 24 24" id="link" xmlns="http://www.w3.org/2000/svg"><path d="M21.111 2.75a5.979 5.979 0 0 0-8.346.01l-1.721 1.71a.999.999 0 1 0 1.41 1.418l1.71-1.7a3.986 3.986 0 0 1 5.558 0c.769.742 1.202 1.74 1.221 2.808s-.38 2.08-1.11 2.836l-3 3a3.955 3.955 0 0 1-.434.375 3.958 3.958 0 0 1-2.967.756A3.97 3.97 0 0 1 10.8 12.4a1.001 1.001 0 0 0-1.602 1.197 5.963 5.963 0 0 0 3.948 2.345 5.954 5.954 0 0 0 4.45-1.135c.229-.172.447-.359.649-.562l3.012-3.012a5.959 5.959 0 0 0 1.684-4.273 5.948 5.948 0 0 0-1.83-4.21z"/><path d="M11.533 18.113L9.835 19.81a3.985 3.985 0 0 1-5.557-.001c-.769-.742-1.202-1.738-1.221-2.807s.38-2.08 1.11-2.836l3-3c.135-.135.28-.26.434-.375a3.965 3.965 0 0 1 2.966-.756 3.97 3.97 0 0 1 2.632 1.563A1 1 0 0 0 14.8 10.4a5.963 5.963 0 0 0-3.948-2.345A5.96 5.96 0 0 0 6.403 9.19c-.23.171-.447.36-.65.562l-3.012 3.013a5.965 5.965 0 0 0-1.684 4.272 5.956 5.956 0 0 0 1.831 4.21 5.973 5.973 0 0 0 4.164 1.692 6.006 6.006 0 0 0 4.185-1.704l1.71-1.709a.999.999 0 1 0-1.414-1.413z"/></symbol><symbol viewBox="0 0 32 26" id="open_all" xmlns="http://www.w3.org/2000/svg"><path d="M16 19.1l-8.6-7.6H2L16 24l14-12.5h-5.4z"/><path d="M30 2L16 14.5 2 2h28z"/></symbol><symbol viewBox="0 0 24 24" id="printer" xmlns="http://www.w3.org/2000/svg"><path d="M20 8h-1V2a1 1 0 0 0-1-1H6a1 1 0 0 0-1 1v6H4c-1.654 0-3 1.346-3 3v5c0 1.654 1.346 3 3 3h1v3a1 1 0 0 0 1 1h12a1 1 0 0 0 1-1v-3h1c1.654 0 3-1.346 3-3v-5c0-1.654-1.346-3-3-3zM7 3h10v5H7V3zm10 18H7v-6h10v6zm4-5a1 1 0 0 1-1 1h-1v-3a1 1 0 0 0-1-1H6a1 1 0 0 0-1 1v3H4c-.551 0-1-.448-1-1v-5c0-.551.449-1 1-1h16c.552 0 1 .449 1 1v5z"/></symbol><symbol viewBox="0 0 24 24" id="search" xmlns="http://www.w3.org/2000/svg"><path d="M21.707 20.293l-3.682-3.682A8.948 8.948 0 0 0 20 11c0-4.962-4.037-9-9-9-4.962 0-9 4.038-9 9 0 4.963 4.038 9 9 9a8.948 8.948 0 0 0 5.611-1.975l3.682 3.682a.997.997 0 0 0 1.414 0 .999.999 0 0 0 0-1.414zM4 11c0-3.86 3.14-7 7-7 3.859 0 7 3.14 7 7a6.976 6.976 0 0 1-2.038 4.931c-.006.006-.013.007-.019.013s-.007.013-.013.019A6.975 6.975 0 0 1 11 18c-3.86 0-7-3.141-7-7z"/></symbol></svg>