<svg xmlns="http://www.w3.org/2000/svg" xmlns:xlink="http://www.w3.org/1999/xlink"><symbol viewBox="-83.5 116.5 100 100" id="checklist" xmlns="http://www.w3.org/2000/svg"><path fill="#F0C829" d="M12.641 127.833h-64.032a1.86 1.86 0 0 0-1.86 1.86v36.992h-16.993a1.86 1.86 0 0 0-1.861 1.86v31.536c0 6.232 5.055 11.287 11.287 11.287H3.214c6.231 0 11.286-5.055 11.286-11.287v-70.389a1.86 1.86 0 0 0-1.859-1.859z"/><path d="M3.242 121.631h-64.061a1.86 1.86 0 0 0-1.859 1.86v36.993H-79.64a1.86 1.86 0 0 0-1.86 1.859v31.535c0 6.235 5.053 11.287 11.287 11.287h64.032c6.232 0 11.287-5.052 11.287-11.287V123.49a1.862 1.862 0 0 0-1.864-1.859zm-81.021 72.248v-29.674h15.101v29.674a7.565 7.565 0 1 1-15.131 0h.03zm79.162 0a7.564 7.564 0 0 1-7.564 7.567h-55.691a11.221 11.221 0 0 0 2.915-7.567v-68.526h60.34v68.526z"/><path d="M-31.39 143.119h23.841a1.86 1.86 0 1 0 0-3.72H-31.39a1.861 1.861 0 1 0 0 3.72zm0 20.435h23.841c1.029 0 1.863-.833 1.863-1.86s-.834-1.86-1.863-1.86H-31.39c-1.029 0-1.863.833-1.863 1.86s.834 1.86 1.863 1.86zm0 20.435h23.841a1.861 1.861 0 1 0 0-3.722H-31.39a1.862 1.862 0 1 0 0 3.722zm-17.18-38.761c.354.378.848.591 1.364.589h.032a1.857 1.857 0 0 0 1.364-.619l10.233-11.193a1.868 1.868 0 0 0-.125-2.637 1.865 1.865 0 0 0-2.635.124l-8.899 9.705-2.759-2.913a1.86 1.86 0 1 0-2.698 2.54l4.123 4.404zm10.202 7.598l-8.869 9.705-2.759-2.916a1.867 1.867 0 0 0-2.637-.093 1.868 1.868 0 0 0-.093 2.636l4.125 4.371c.352.379.848.593 1.364.591h.031a1.854 1.854 0 0 0 1.364-.62l10.233-11.193a1.867 1.867 0 0 0-2.759-2.514v.033zm0 21.331l-8.869 9.706-2.759-2.915a1.859 1.859 0 0 0-2.627.151 1.86 1.86 0 0 0-.071 2.394l4.123 4.37c.354.379.848.592 1.364.592h.032a1.854 1.854 0 0 0 1.364-.624l10.233-11.19a1.867 1.867 0 0 0-2.76-2.513l-.03.029z"/></symbol><symbol viewBox="-83.5 104.73 100 32" id="pidila" xmlns="http://www.w3.org/2000/svg"><path fill="none" d="M5.41 125.37h3.85l-1.94-12.82-1.91 12.82m-50.84 4.42h2.25c1.25 0 2.02-.66 2.02-2.45v-13.19c0-1.82-.77-2.45-2.02-2.45h-2.25v18.09zm-32.11-9.55h1.88c1.25 0 1.97-.57 1.97-2.39v-3.79c0-1.82-.68-2.39-1.97-2.39h-1.88v8.57z"/><path fill="#252A4A" d="M-75.66 111.66h5.58c-.74-2.37-2.56-3.62-5.58-3.62h-1.88v3.62h1.88z"/><path fill="#E84443" d="M-69.7 114.31c0-.9-.12-1.79-.37-2.65h-5.56c1.25 0 1.97.57 1.97 2.39v3.82c0 1.82-.68 2.39-1.97 2.39h-1.88v3.62h1.88c3.99 0 5.93-2.19 5.93-6.27v-3.3z"/><path fill="#5C3249" d="M-81.5 123.89h3.99v9.52h-3.99v-9.52z"/><path fill="#A73448" d="M-81.5 108.05v15.84h3.99v-3.65l-.03-8.58.03-3.62h-3.99"/><path fill="#E84443" d="M-61.98 114.06h3.99v6.18h-3.99v-6.18zm0-6.01h3.99v3.67h-3.99v-3.67z"/><path fill="#252A4A" d="M-61.98 120.24h3.99v6.1h-3.99v-6.1z"/><path fill="#A73448" d="M-61.98 126.34h3.99v7.07h-3.99v-7.07z"/><path fill="#E84443" d="M-43.17 129.79h-6.24v3.62h6.3c2.99 0 4.84-1.25 5.58-3.62h-5.64z"/><path fill="#A73448" d="M-49.42 108.05v21.74h3.99v-21.74h-3.99"/><path fill="#5C3249" d="M-37.53 111.66c-.74-2.37-2.56-3.62-5.58-3.62h-2.31v3.62h2.25c1.25 0 2.02.66 2.02 2.45v13.16c0 1.82-.77 2.51-2.02 2.51h5.64c.24-.88.35-1.79.34-2.71v-12.82c.02-.87-.09-1.75-.34-2.59z"/><path fill="#252A4A" d="M-28.93 114.06h3.99v4.9h-3.99v-4.9z"/><path fill="#E84443" d="M-28.93 118.96h3.99v14.45h-3.99v-14.45z"/><path fill="#5C3249" d="M-28.93 108.05h3.99v3.67h-3.99v-3.67z"/><path fill="#A73448" d="M-12.37 129.79h-3.99v3.62h10.54v-3.62h-6.55"/><path fill="#252A4A" d="M-16.36 108.05h3.99v4.5h-3.99v-4.5z"/><path fill="#5C3249" d="M-16.36 112.55h3.99v17.24h-3.99v-17.24z"/><path fill="#252A4A" d="M13.76 128.79H9.8l.68 4.61h4.02l-.74-4.61"/><path fill="#E84443" d="M7.32 112.55v-4.5H4.61l-2.77 17.32H5.4l1.92-12.82"/><path fill="#5C3249" d="M13.22 125.37H1.85l-.57 3.42h12.48l-.54-3.42"/><path fill="#E84443" d="M.57 133.4h3.65l.68-4.61H1.28l-.71 4.61"/><path fill="#A73448" d="M9.26 125.37h3.96l-2.79-17.32H7.32v4.5l1.94 12.82"/></symbol><symbol viewBox="-85.5 112.52 100 88" id="scampi" xmlns="http://www.w3.org/2000/svg"><path fill="#E84545" d="M-11.706 161.926c1.578-1.896 1.719-6.266 1.719-6.266 0-.652.529-1.182 1.181-1.182H2.4a1.18 1.18 0 0 0 1.182-1.182v-1.754c0-.653.53-1.182 1.185-1.182h1.861c.651 0 1.182-.53 1.182-1.182v-2.292c0-.653.53-1.182 1.182-1.182h2.148a1.18 1.18 0 0 0 1.182-1.181v-2.148a1.18 1.18 0 0 0-1.182-1.182h-65.167l-8.378 2.148a.922.922 0 0 0-.395.179l-5.12 3.544-.215.215-8.522 9.848c-.146.16-.247.357-.286.574l-1.719 10.561c-.044.217-.021.443.072.646l4.548 11.67c.075.184.197.348.357.465l8.736 7.344a1.178 1.178 0 0 0 1.647-.146l.107-.105a1.22 1.22 0 0 0 .144-1.076l-3.222-8.77a1.182 1.182 0 0 1-.037-.752l2.077-6.984c.074-.244.225-.455.43-.607l5.157-3.902c.137-.105.295-.178.464-.217l6.983-1.291h17.868l15.68.256c.792 0 4.371-.97 5.945-2.867z"/><path fill="#E84545" d="M-64.197 188.782a1.31 1.31 0 0 1-.824-.322l-8.701-7.305a1.208 1.208 0 0 1-.357-.502l-4.619-11.709a1.104 1.104 0 0 1-.072-.68l1.719-10.561c.031-.238.131-.463.286-.646l8.557-9.881.25-.217 5.121-3.544c.125-.104.271-.179.43-.216l8.378-2.111h65.24c.709 0 1.287.576 1.287 1.289v2.113c0 .71-.578 1.287-1.287 1.287h-2.15c-.613 0-1.107.497-1.107 1.11v2.256a1.29 1.29 0 0 1-1.291 1.29h-1.86a1.11 1.11 0 0 0-1.111 1.109v1.719c0 .711-.575 1.289-1.29 1.289H-8.807c-.612 0-1.108.496-1.108 1.109 0 .179-.144 4.439-1.721 6.336-1.574 1.9-5.262 2.902-6.016 2.902l-15.68-.252h-17.833l-6.981 1.289a1.064 1.064 0 0 0-.429.217l-5.157 3.865a1.113 1.113 0 0 0-.394.537l-2.077 7.018c-.07.236-.057.49.037.719l3.222 8.77c.132.402.065.84-.179 1.182l-.107.109a1.286 1.286 0 0 1-.967.431zm75.41-47.515h-65.24l-8.378 2.185-.358.178-5.121 3.547-.214.178-8.487 9.883c-.132.15-.219.338-.25.537l-1.718 10.564a.94.94 0 0 0 .07.572l4.548 11.67c.067.172.179.318.322.434l8.736 7.338a1.074 1.074 0 0 0 1.517-.084c.008-.006.016-.012.024-.025l.072-.105c.206-.291.259-.668.142-1.002l-3.222-8.771a1.294 1.294 0 0 1-.037-.824l2.077-7.018c.077-.275.24-.512.466-.684l5.155-3.902c.147-.121.318-.203.501-.248l6.983-1.289h17.868l15.68.248c.645-.035 4.298-.93 5.876-2.828 1.573-1.898 1.682-6.193 1.682-6.23 0-.712.579-1.288 1.287-1.288H2.4a1.11 1.11 0 0 0 1.111-1.109v-1.72c0-.711.577-1.288 1.29-1.288h1.86c.613 0 1.112-.498 1.112-1.11v-2.185c0-.712.577-1.288 1.286-1.288h2.152c.612 0 1.108-.497 1.108-1.109v-2.113c0-.6-.477-1.092-1.076-1.11h-.03z"/><path d="M-31.897 158.522v-18.975h42.894v-2.898h-13.5l.253-.217a10.28 10.28 0 0 0 2.898-7.482c-.179-5.514-4.978-9.99-10.706-9.99h-13.64a.753.753 0 0 1-.754-.752.791.791 0 0 1 .754-.752h3.685v-2.936h-3.685a3.686 3.686 0 0 0-3.308 4.033 3.69 3.69 0 0 0 3.308 3.307h13.64c4.154 0 7.664 3.223 7.771 7.162a7.418 7.418 0 0 1-2.078 5.371 7.342 7.342 0 0 1-5.297 2.256h-46.515a27.767 27.767 0 0 0-19.692 8.307 26 26 0 0 0-7.628 18.836c.286 13.914 11.305 25.23 25.208 25.885h.107a10.316 10.316 0 0 0 10.204 8.844h11.781v-1.465a10.306 10.306 0 0 0-5.048-8.844 10.281 10.281 0 0 0 5.048-8.846v-1.469H-47.94a10.314 10.314 0 0 0-10.205 8.807c-6.336-.658-11.019-6.211-10.599-12.568.395-6.193 5.8-11.062 12.282-11.062h34.982a8.842 8.842 0 0 0 8.841-8.844h-2.898a5.905 5.905 0 0 1-5.872 5.941H-45.04v-11.527h2.899v-2.899h-2.899v-6.196h10.24v10.636h-4.44v2.899h4.44v5.408l2.903.03zm-7.308 37.17h-8.736a7.413 7.413 0 0 1-6.804-4.473l4.583 2.754 1.504-2.506-2.899-1.717h5.083a7.444 7.444 0 0 1 7.269 5.942zm-8.735-14.824h8.736a7.411 7.411 0 0 1-7.269 5.945h-5.083l2.899-1.719-1.504-2.51-4.583 2.76a7.386 7.386 0 0 1 6.804-4.476zm-32.619-17.116a23.035 23.035 0 0 1 .822-6.551l5.98 5.977-2.65 2.65 2.042 2.043 2.648-2.65 2.186 2.186a14.314 14.314 0 0 0-2.114 6.373h-6.445a22.899 22.899 0 0 1-2.47-9.988v-.04zm7.088 16.366a23.178 23.178 0 0 1-2.899-3.402h4.797a14.369 14.369 0 0 0 2.686 6.91 23.509 23.509 0 0 1-4.584-3.508zm5.765-15.004l-4.117-4.152 1.934-1.934-2.041-2.043-1.934 1.934-4.762-4.725a23.847 23.847 0 0 1 4.87-7.162 25.154 25.154 0 0 1 7.125-5.12l.824 3.044-2.435 2.398 2.041 2.041 1.253-1.254 3.437 12.926a15.176 15.176 0 0 0-6.194 4.01v.037zm19.728-22.666h-4.439v2.901h4.439v14.896h-8.484a14.94 14.94 0 0 0-2.256.178l-.859-3.258h1.182v-2.899h-1.933l-3.581-13.428a24.588 24.588 0 0 1 7.77-1.29h8.199v2.9h-.038z"/><path d="M-23.021 144.418h3.116v2.899h-3.116v-2.899zm20.198 8.702H.396v-2.901h-17.58v2.901h7.448c4.905.438 8.521 4.771 8.085 9.676a8.91 8.91 0 0 1-8.943 8.119H-15a5.83 5.83 0 0 0-5.868 5.801 5.829 5.829 0 0 0 5.798 5.869v-2.898a2.936 2.936 0 1 1 .071-5.873h4.441c6.526-.033 11.784-5.354 11.75-11.879a11.81 11.81 0 0 0-3.981-8.779l-.034-.036zm-7.018-11.996H9.705v2.9H-9.841v-2.9zm-2.723 4.62H5.019v2.899h-17.583v-2.899zm-44.507 8.521h5.979v2.899h-5.979v-2.899z"/></symbol><symbol viewBox="-83.5 108.775 100 48" id="scampi-twig" xmlns="http://www.w3.org/2000/svg"><path fill="#E84545" d="M-42.642 135.648c.872-1.016.934-3.4.934-3.4 0-.357.285-.652.642-.664h6.055a.663.663 0 0 0 .664-.642v-.954c0-.359.285-.652.644-.663h1.016a.665.665 0 0 0 .663-.644v-1.223a.663.663 0 0 1 .642-.664h1.162c.357 0 .65-.283.662-.643v-1.078a.662.662 0 0 0-.64-.664h-35.354l-4.54 1.183-.208.104-2.758 1.906-.103.104-4.666 5.35a.638.638 0 0 0-.145.311l-.934 5.703a.552.552 0 0 0 .042.33l2.467 6.326c.039.096.104.18.187.248l4.727 3.959c.266.225.66.197.892-.061l.042-.062a.667.667 0 0 0 .083-.604l-1.72-4.727a.633.633 0 0 1-.021-.414l1.14-3.797a.654.654 0 0 1 .229-.33l2.778-2.111a.673.673 0 0 1 .249-.107l3.794-.705h9.663l8.5.146c.415.02 2.343-.52 3.213-1.535v.022z"/><path fill="#E84545" d="M-71.069 150.226a.739.739 0 0 1-.455-.168l-4.728-3.959a.705.705 0 0 1-.207-.293l-2.487-6.346a.627.627 0 0 1-.042-.391l.932-5.703a.72.72 0 0 1 .167-.352l4.624-5.35.145-.125 2.758-1.928a.602.602 0 0 1 .249-.104l4.52-1.161h35.352c.401 0 .728.325.728.727v1.141c0 .4-.326.725-.728.725h-1.162a.581.581 0 0 0-.579.582v1.223c0 .4-.325.725-.726.725h-1.017a.58.58 0 0 0-.58.582v.953a.727.727 0 0 1-.726.727h-6.035a.58.58 0 0 0-.58.579c0 .104-.083 2.403-.954 3.442-.87 1.037-2.882 1.578-3.275 1.578l-8.501-.148h-9.643l-3.772.707-.209.103-2.798 2.055a.537.537 0 0 0-.208.285l-1.141 3.797a.558.558 0 0 0 .022.352l1.742 4.748a.722.722 0 0 1-.084.662l-.041.062a.718.718 0 0 1-.561.248v.025zm5.661-25.732h-.145l-4.52 1.139-.166.084-2.778 1.949-.104.104-4.623 5.35a.536.536 0 0 0-.126.27l-.932 5.701a.473.473 0 0 0 .042.291l2.467 6.324c.033.09.09.168.165.227l4.729 4.002a.558.558 0 0 0 .788-.061l.042-.045a.577.577 0 0 0 .062-.516l-1.742-4.748a.73.73 0 0 1-.022-.457l1.141-3.775a.754.754 0 0 1 .249-.373l2.78-2.113a.762.762 0 0 1 .269-.125l3.794-.705h9.684l8.5.146c.373 0 2.301-.52 3.151-1.535.85-1.014.912-3.338.912-3.338 0-.4.326-.725.726-.725h6.055a.584.584 0 0 0 .582-.561v-.953c0-.4.325-.726.726-.726h1.016a.58.58 0 0 0 .579-.562v-1.223c0-.4.325-.726.726-.726h1.162a.582.582 0 0 0 .582-.56v-1.162a.58.58 0 0 0-.56-.579l-35.211-.019z"/><path d="M-53.568 133.802V123.54h23.223v-1.575h-7.32l.125-.104a5.582 5.582 0 0 0 1.597-4.064c-.104-2.985-2.696-5.411-5.785-5.411h-7.402a.414.414 0 1 1 0-.829h1.991v-1.577h-1.991a1.993 1.993 0 0 0-1.777 2.186c.096.938.837 1.68 1.777 1.775h7.402c2.259 0 4.146 1.742 4.208 3.898a4.022 4.022 0 0 1-3.917 4.125l-.104.002h-25.171a15.034 15.034 0 0 0-10.657 4.498 14.075 14.075 0 0 0-4.127 10.221c.145 7.543 6.109 13.68 13.644 14.041h.062a5.573 5.573 0 0 0 5.514 4.785h6.386v-.787a5.578 5.578 0 0 0-2.716-4.789 5.572 5.572 0 0 0 2.716-4.791v-.787h-6.364a5.598 5.598 0 0 0-5.536 4.771 6.408 6.408 0 0 1-5.723-6.801c.228-3.361 3.131-5.994 6.634-5.994h18.952a4.79 4.79 0 0 0 4.789-4.79h-1.576a3.216 3.216 0 0 1-3.193 3.196H-60.7v-6.285h1.576v-1.555H-60.7v-3.358h5.556v5.763h-2.405v1.578h2.405v2.941l1.576-.021zm-3.939 20.135h-4.748a4.027 4.027 0 0 1-3.67-2.428l2.488 1.494.808-1.348-1.576-.932h2.758a4.025 4.025 0 0 1 3.94 3.214zm-4.728-8.023h4.728a4.019 4.019 0 0 1-3.94 3.23h-2.778l1.575-.951-.808-1.348-2.489 1.492a3.998 3.998 0 0 1 3.67-2.424h.042zm-17.687-9.272a12.464 12.464 0 0 1 .457-3.545l3.255 3.234-1.451 1.434 1.098 1.096 1.431-1.432 1.183 1.184a7.72 7.72 0 0 0-1.141 3.463h-3.525a12.414 12.414 0 0 1-1.307-5.434zm3.816 8.854a12.452 12.452 0 0 1-1.576-1.863h2.632a7.808 7.808 0 0 0 1.451 3.754 12.944 12.944 0 0 1-2.488-1.891h-.019zm3.109-8.129l-2.217-2.236 1.037-1.037-1.1-1.099-1.037 1.036-2.57-2.571a12.908 12.908 0 0 1 2.632-3.898 13.61 13.61 0 0 1 3.878-2.757l.435 1.639-1.327 1.326 1.099 1.099.663-.663 1.866 6.986a8.212 8.212 0 0 0-3.337 2.158l-.022.017zm10.72-12.252h-2.405v1.576h2.405v8.066h-4.603c-.41.006-.819.037-1.223.105l-.457-1.786h.643v-1.575h-1.078l-1.928-7.258a13.315 13.315 0 0 1 4.209-.684h4.458v1.555h-.021z"/><path d="M-48.758 126.152h1.68v1.575h-1.68v-1.575zm10.948 4.728h1.74v-1.578h-9.537v1.578h4.043a4.832 4.832 0 1 1-.455 9.641h-2.405a3.164 3.164 0 0 0-.042 6.325v-1.578a1.596 1.596 0 1 1 .042-3.191h2.405a6.403 6.403 0 0 0 6.359-6.455 6.397 6.397 0 0 0-2.15-4.742zm-3.836-6.512h10.574v1.577h-10.574v-1.577zm-1.473 2.509h9.539v1.575h-9.539v-1.575zm-24.071 4.624h3.255v1.575h-3.255v-1.575z"/><path fill="#16946C" d="M-24.562 155.285c0-.484.392-.873.87-.873h5.289a3.644 3.644 0 0 0-.745-1.141c-.604-.684-1.306-1.553-1.306-3.17 0-1.619.724-2.492 1.306-3.176.577-.684.889-1.035.889-2.008 0-.975-.373-1.41-.889-2.014-.52-.602-1.306-1.535-1.306-3.17 0-1.641.724-2.492 1.306-3.176.577-.684.889-1.033.889-2.006 0-.979-.373-1.413-.889-2.015-.52-.601-1.306-1.556-1.306-3.173s.724-2.487 1.306-3.172c.577-.685.889-1.037.889-2.012s-.373-1.409-.889-2.01c-.52-.602-1.306-1.534-1.306-3.174 0-1.637.889-2.859 1.719-3.855 1.162-1.41 2.551-2.197 3.754-2.197h.04a4.064 4.064 0 0 1 3.898 5.287 2.629 2.629 0 0 0-.103.809c0 .953.372 1.408.892 2.01.519.602 1.305 1.535 1.305 3.174 0 1.637-.724 2.486-1.305 3.172-.581.684-.892 1.037-.892 2.011s.372 1.411.892 2.011c.519.604 1.305 1.535 1.305 3.172 0 1.641-.724 2.488-1.305 3.176-.581.684-.892 1.035-.892 2.008 0 .975.372 1.41.892 2.014.519.602 1.305 1.553 1.305 3.168 0 1.619-.724 2.494-1.305 3.178s-.892 1.033-.892 2.006c0 .977.372 1.412.892 2.014.519.604 1.016 1.225 1.225 2.281H.735a3.675 3.675 0 0 0-.746-1.141c-.603-.686-1.305-1.557-1.305-3.172s.724-2.486 1.305-3.174c.581-.684.892-1.033.892-2.01s-.372-1.41-.892-2.01c-.516-.602-1.305-1.535-1.305-3.174 0-1.637.724-2.486 1.305-3.172.581-.684.892-1.035.892-2.012 0-.975-.372-1.41-.892-2.012-.516-.602-1.305-1.555-1.305-3.172 0-1.098.684-2.551 1.824-3.878.581-.663 2.072-2.196 3.647-2.196h.041a4.066 4.066 0 0 1 4.083 4.047c0 .414-.062.824-.184 1.219a2.599 2.599 0 0 0-.103.809c0 .955.373 1.41.89 2.012.519.601 1.308 1.534 1.308 3.172 0 1.639-.727 2.486-1.308 3.17-.578.688-.89 1.037-.89 2.014s.373 1.41.89 2.01c.519.602 1.308 1.535 1.308 3.174 0 1.637-.727 2.486-1.308 3.172-.578.684-.89 1.035-.89 2.012 0 .975.373 1.41.89 2.01.519.6 1.019 1.225 1.224 2.281h1.182"/><path d="M3.471 144.355c0 1.619-.724 2.49-1.308 3.174-.578.684-.889 1.037-.889 2.01 0 .494-.398.893-.893.893s-.892-.398-.892-.893c0-1.619.728-2.488 1.306-3.172.581-.684.892-1.039.892-2.012s-.373-1.406-.892-2.01c-.517-.604-1.306-1.535-1.306-3.172 0-1.639.728-2.49 1.306-3.174.581-.684.892-1.037.892-2.01 0-.975-.373-1.41-.892-2.012-.517-.602-1.306-1.555-1.306-3.172a.891.891 0 1 1 1.785 0c0 .953.372 1.408.889 2.012.521.6 1.308 1.533 1.308 3.172 0 1.637-.724 2.488-1.308 3.172-.578.684-.889 1.037-.889 2.012 0 .973.372 1.41.889 2.01.522.604 1.308 1.553 1.308 3.172zm3.9 9.477h6.24a.868.868 0 0 1 .889.852v.018a.868.868 0 0 1-.87.871h-40.287a.892.892 0 0 1 0-1.782h5.289a3.644 3.644 0 0 0-.745-1.141c-.604-.684-1.309-1.555-1.309-3.172 0-1.619.728-2.49 1.309-3.174.578-.684.889-1.037.889-2.01s-.373-1.408-.889-2.012c-.52-.602-1.309-1.535-1.309-3.172 0-1.639.728-2.49 1.309-3.174.578-.684.889-1.037.889-2.01 0-.975-.373-1.41-.889-2.012-.52-.601-1.309-1.555-1.309-3.172s.728-2.488 1.309-3.174c.578-.684.889-1.035.889-2.01s-.373-1.409-.889-2.011c-.52-.601-1.309-1.556-1.309-3.173s.892-2.861 1.722-3.856c1.159-1.39 2.552-2.198 3.751-2.198h.043a4.067 4.067 0 0 1 4.081 4.049c.003.412-.06.823-.184 1.219a2.616 2.616 0 0 0-.103.807c0 .955.373 1.412.892 2.013.516.602 1.306 1.534 1.306 3.171 0 1.639-.728 2.49-1.306 3.174-.581.684-.892 1.036-.892 2.01 0 .977.373 1.411.892 2.013.516.601 1.306 1.533 1.306 3.171 0 1.639-.728 2.488-1.306 3.172-.581.684-.892 1.037-.892 2.014 0 .975.373 1.41.892 2.01.516.6 1.306 1.557 1.306 3.174 0 1.615-.728 2.486-1.306 3.17-.581.686-.892 1.037-.892 2.014 0 .975.373 1.41.892 2.01.516.6 1.017 1.221 1.225 2.281h9.764a3.63 3.63 0 0 0-.746-1.141c-.603-.684-1.305-1.555-1.305-3.172 0-1.619.724-2.49 1.305-3.174s.893-1.037.893-2.01-.373-1.408-.893-2.012c-.519-.602-1.305-1.535-1.305-3.172 0-1.639.724-2.49 1.305-3.174s.893-1.037.893-2.01c0-.975-.373-1.41-.893-2.012-.519-.601-1.305-1.555-1.305-3.172 0-1.099.684-2.551 1.824-3.877.581-.664 2.072-2.199 3.648-2.199h.04a4.07 4.07 0 0 1 4.083 4.049c0 .412-.062.824-.183 1.219a2.545 2.545 0 0 0-.103.809c0 .953.373 1.409.889 2.012.519.6 1.305 1.533 1.305 3.172 0 1.637-.724 2.488-1.305 3.172-.578.684-.889 1.039-.889 2.012s.373 1.41.889 2.01c.519.604 1.305 1.535 1.305 3.174 0 1.637-.724 2.488-1.305 3.172-.578.684-.889 1.039-.889 2.012s.373 1.41.889 2.01c.519.604 1.016 1.225 1.225 2.281h1.181m-22.163-.002a3.96 3.96 0 0 0-.746-1.139c-.603-.686-1.309-1.557-1.309-3.176 0-1.615.725-2.484 1.309-3.17.578-.684.889-1.037.889-2.014 0-.973-.373-1.41-.889-2.006-.52-.604-1.309-1.535-1.309-3.176 0-1.635.725-2.486 1.309-3.17.578-.684.889-1.039.889-2.014 0-.974-.373-1.41-.889-2.012-.52-.602-1.309-1.553-1.309-3.171s.725-2.489 1.309-3.153c.578-.662.889-1.035.889-2.01s-.373-1.409-.889-2.011c-.52-.601-1.309-1.556-1.309-3.173a4.51 4.51 0 0 1 .189-1.326 2.24 2.24 0 0 0-.335-2.013 2.268 2.268 0 0 0-1.865-.952h-.043c-1.492 0-3.711 2.82-3.711 4.291 0 .954.373 1.409.896 2.011.516.601 1.305 1.535 1.305 3.173s-.727 2.487-1.305 3.173c-.584.684-.896 1.036-.896 2.011s.373 1.409.896 2.012c.516.6 1.305 1.533 1.305 3.172 0 1.637-.727 2.488-1.305 3.172-.584.684-.896 1.039-.896 2.012s.373 1.41.896 2.01c.516.604 1.305 1.535 1.305 3.174 0 1.637-.727 2.488-1.305 3.172-.584.684-.896 1.039-.896 2.012s.373 1.41.896 2.01c.516.604 1.013 1.205 1.221 2.281h1.93a3.614 3.614 0 0 0-.748-1.139c-.601-.686-1.306-1.535-1.306-3.176 0-1.635.725-2.484 1.306-3.17.581-.684.892-1.037.892-2.014 0-.973-.373-1.41-.892-2.006-.52-.604-1.306-1.535-1.306-3.176 0-1.635.725-2.486 1.306-3.17s.892-1.039.892-2.014c0-.974-.373-1.41-.892-2.012-.52-.602-1.306-1.533-1.306-3.171s.725-2.489 1.306-3.173.892-1.036.892-2.011c0-.976-.373-1.411-.892-2.013-.52-.601-1.306-1.533-1.306-3.17a.89.89 0 1 1 1.781 0c0 .974.376 1.408.896 2.01.516.602 1.305 1.535 1.305 3.173s-.727 2.487-1.305 3.171c-.581.686-.896 1.037-.896 2.013 0 .974.376 1.409.896 2.011.516.602 1.305 1.535 1.305 3.172 0 1.641-.727 2.488-1.305 3.172-.581.688-.896 1.039-.896 2.012 0 .975.376 1.41.896 2.014.516.6 1.305 1.535 1.305 3.168 0 1.643-.727 2.49-1.305 3.178-.581.684-.896 1.033-.896 2.006 0 .977.376 1.412.896 2.014.516.6 1.013 1.225 1.222 2.281l1.928.02zm19.136 0a3.875 3.875 0 0 0-.745-1.139c-.604-.686-1.306-1.557-1.306-3.176 0-1.615.725-2.484 1.306-3.17.581-.684.892-1.037.892-2.014 0-.973-.376-1.41-.892-2.006-.52-.604-1.306-1.535-1.306-3.176 0-1.635.725-2.486 1.306-3.17s.892-1.039.892-2.014c0-.974-.376-1.41-.892-2.012-.52-.602-1.306-1.553-1.306-3.171a4.354 4.354 0 0 1 .187-1.327 2.268 2.268 0 0 0-.332-2.012 2.287 2.287 0 0 0-1.868-.953H1.19c-1.246 0-3.714 2.841-3.714 4.292 0 .954.376 1.409.895 2.011.517.602 1.306 1.535 1.306 3.172 0 1.641-.728 2.488-1.306 3.172-.581.688-.895 1.039-.895 2.012 0 .975.376 1.41.895 2.014.517.6 1.306 1.553 1.306 3.168 0 1.619-.728 2.49-1.306 3.178-.581.684-.895 1.033-.895 2.006 0 .977.376 1.412.895 2.014.517.6 1.014 1.201 1.225 2.281l5.699.02z"/></symbol></svg>