<svg xmlns="http://www.w3.org/2000/svg" width="64" height="20.48" viewBox="-83.5 104.73 100 32"><path fill="none" d="M5.41 125.37h3.85l-1.94-12.82-1.91 12.82m-50.84 4.42h2.25c1.25 0 2.02-.66 2.02-2.45v-13.19c0-1.82-.77-2.45-2.02-2.45h-2.25v18.09zm-32.11-9.55h1.88c1.25 0 1.97-.57 1.97-2.39v-3.79c0-1.82-.68-2.39-1.97-2.39h-1.88v8.57z"/><path fill="#252A4A" d="M-75.66 111.66h5.58c-.74-2.37-2.56-3.62-5.58-3.62h-1.88v3.62h1.88z"/><path fill="#E84443" d="M-69.7 114.31c0-.9-.12-1.79-.37-2.65h-5.56c1.25 0 1.97.57 1.97 2.39v3.82c0 1.82-.68 2.39-1.97 2.39h-1.88v3.62h1.88c3.99 0 5.93-2.19 5.93-6.27v-3.3z"/><path fill="#5C3249" d="M-81.5 123.89h3.99v9.52h-3.99v-9.52z"/><path fill="#A73448" d="M-81.5 108.05v15.84h3.99v-3.65l-.03-8.58.03-3.62h-3.99"/><path fill="#E84443" d="M-61.98 114.06h3.99v6.18h-3.99v-6.18zm0-6.01h3.99v3.67h-3.99v-3.67z"/><path fill="#252A4A" d="M-61.98 120.24h3.99v6.1h-3.99v-6.1z"/><path fill="#A73448" d="M-61.98 126.34h3.99v7.07h-3.99v-7.07z"/><path fill="#E84443" d="M-43.17 129.79h-6.24v3.62h6.3c2.99 0 4.84-1.25 5.58-3.62h-5.64z"/><path fill="#A73448" d="M-49.42 108.05v21.74h3.99v-21.74h-3.99"/><path fill="#5C3249" d="M-37.53 111.66c-.74-2.37-2.56-3.62-5.58-3.62h-2.31v3.62h2.25c1.25 0 2.02.66 2.02 2.45v13.16c0 1.82-.77 2.51-2.02 2.51h5.64c.24-.88.35-1.79.34-2.71v-12.82c.02-.87-.09-1.75-.34-2.59z"/><path fill="#252A4A" d="M-28.93 114.06h3.99v4.9h-3.99v-4.9z"/><path fill="#E84443" d="M-28.93 118.96h3.99v14.45h-3.99v-14.45z"/><path fill="#5C3249" d="M-28.93 108.05h3.99v3.67h-3.99v-3.67z"/><path fill="#A73448" d="M-12.37 129.79h-3.99v3.62h10.54v-3.62h-6.55"/><path fill="#252A4A" d="M-16.36 108.05h3.99v4.5h-3.99v-4.5z"/><path fill="#5C3249" d="M-16.36 112.55h3.99v17.24h-3.99v-17.24z"/><path fill="#252A4A" d="M13.76 128.79H9.8l.68 4.61h4.02l-.74-4.61"/><path fill="#E84443" d="M7.32 112.55v-4.5H4.61l-2.77 17.32H5.4l1.92-12.82"/><path fill="#5C3249" d="M13.22 125.37H1.85l-.57 3.42h12.48l-.54-3.42"/><path fill="#E84443" d="M.57 133.4h3.65l.68-4.61H1.28l-.71 4.61"/><path fill="#A73448" d="M9.26 125.37h3.96l-2.79-17.32H7.32v4.5l1.94 12.82"/></svg>