<svg xmlns="http://www.w3.org/2000/svg" width="64" height="30.72" viewBox="-83.5 108.775 100 48"><path fill="#E84545" d="M-42.642 135.648c.872-1.016.934-3.4.934-3.4 0-.357.285-.652.642-.664h6.055a.663.663 0 0 0 .664-.642v-.954c0-.359.285-.652.644-.663h1.016a.665.665 0 0 0 .663-.644v-1.223a.663.663 0 0 1 .642-.664h1.162c.357 0 .65-.283.662-.643v-1.078a.662.662 0 0 0-.64-.664h-35.354l-4.54 1.183-.208.104-2.758 1.906-.103.104-4.666 5.35a.638.638 0 0 0-.145.311l-.934 5.703a.552.552 0 0 0 .042.33l2.467 6.326c.039.096.104.18.187.248l4.727 3.959c.266.225.66.197.892-.061l.042-.062a.667.667 0 0 0 .083-.604l-1.72-4.727a.633.633 0 0 1-.021-.414l1.14-3.797a.654.654 0 0 1 .229-.33l2.778-2.111a.673.673 0 0 1 .249-.107l3.794-.705h9.663l8.5.146c.415.02 2.343-.52 3.213-1.535v.022z"/><path fill="#E84545" d="M-71.069 150.226a.739.739 0 0 1-.455-.168l-4.728-3.959a.705.705 0 0 1-.207-.293l-2.487-6.346a.627.627 0 0 1-.042-.391l.932-5.703a.72.72 0 0 1 .167-.352l4.624-5.35.145-.125 2.758-1.928a.602.602 0 0 1 .249-.104l4.52-1.161h35.352c.401 0 .728.325.728.727v1.141c0 .4-.326.725-.728.725h-1.162a.581.581 0 0 0-.579.582v1.223c0 .4-.325.725-.726.725h-1.017a.58.58 0 0 0-.58.582v.953a.727.727 0 0 1-.726.727h-6.035a.58.58 0 0 0-.58.579c0 .104-.083 2.403-.954 3.442-.87 1.037-2.882 1.578-3.275 1.578l-8.501-.148h-9.643l-3.772.707-.209.103-2.798 2.055a.537.537 0 0 0-.208.285l-1.141 3.797a.558.558 0 0 0 .022.352l1.742 4.748a.722.722 0 0 1-.084.662l-.041.062a.718.718 0 0 1-.561.248v.025zm5.661-25.732h-.145l-4.52 1.139-.166.084-2.778 1.949-.104.104-4.623 5.35a.536.536 0 0 0-.126.27l-.932 5.701a.473.473 0 0 0 .042.291l2.467 6.324c.033.09.09.168.165.227l4.729 4.002a.558.558 0 0 0 .788-.061l.042-.045a.577.577 0 0 0 .062-.516l-1.742-4.748a.73.73 0 0 1-.022-.457l1.141-3.775a.754.754 0 0 1 .249-.373l2.78-2.113a.762.762 0 0 1 .269-.125l3.794-.705h9.684l8.5.146c.373 0 2.301-.52 3.151-1.535.85-1.014.912-3.338.912-3.338 0-.4.326-.725.726-.725h6.055a.584.584 0 0 0 .582-.561v-.953c0-.4.325-.726.726-.726h1.016a.58.58 0 0 0 .579-.562v-1.223c0-.4.325-.726.726-.726h1.162a.582.582 0 0 0 .582-.56v-1.162a.58.58 0 0 0-.56-.579l-35.211-.019z"/><path d="M-53.568 133.802V123.54h23.223v-1.575h-7.32l.125-.104a5.582 5.582 0 0 0 1.597-4.064c-.104-2.985-2.696-5.411-5.785-5.411h-7.402a.414.414 0 1 1 0-.829h1.991v-1.577h-1.991a1.993 1.993 0 0 0-1.777 2.186c.096.938.837 1.68 1.777 1.775h7.402c2.259 0 4.146 1.742 4.208 3.898a4.022 4.022 0 0 1-3.917 4.125l-.104.002h-25.171a15.034 15.034 0 0 0-10.657 4.498 14.075 14.075 0 0 0-4.127 10.221c.145 7.543 6.109 13.68 13.644 14.041h.062a5.573 5.573 0 0 0 5.514 4.785h6.386v-.787a5.578 5.578 0 0 0-2.716-4.789 5.572 5.572 0 0 0 2.716-4.791v-.787h-6.364a5.598 5.598 0 0 0-5.536 4.771 6.408 6.408 0 0 1-5.723-6.801c.228-3.361 3.131-5.994 6.634-5.994h18.952a4.79 4.79 0 0 0 4.789-4.79h-1.576a3.216 3.216 0 0 1-3.193 3.196H-60.7v-6.285h1.576v-1.555H-60.7v-3.358h5.556v5.763h-2.405v1.578h2.405v2.941l1.576-.021zm-3.939 20.135h-4.748a4.027 4.027 0 0 1-3.67-2.428l2.488 1.494.808-1.348-1.576-.932h2.758a4.025 4.025 0 0 1 3.94 3.214zm-4.728-8.023h4.728a4.019 4.019 0 0 1-3.94 3.23h-2.778l1.575-.951-.808-1.348-2.489 1.492a3.998 3.998 0 0 1 3.67-2.424h.042zm-17.687-9.272a12.464 12.464 0 0 1 .457-3.545l3.255 3.234-1.451 1.434 1.098 1.096 1.431-1.432 1.183 1.184a7.72 7.72 0 0 0-1.141 3.463h-3.525a12.414 12.414 0 0 1-1.307-5.434zm3.816 8.854a12.452 12.452 0 0 1-1.576-1.863h2.632a7.808 7.808 0 0 0 1.451 3.754 12.944 12.944 0 0 1-2.488-1.891h-.019zm3.109-8.129l-2.217-2.236 1.037-1.037-1.1-1.099-1.037 1.036-2.57-2.571a12.908 12.908 0 0 1 2.632-3.898 13.61 13.61 0 0 1 3.878-2.757l.435 1.639-1.327 1.326 1.099 1.099.663-.663 1.866 6.986a8.212 8.212 0 0 0-3.337 2.158l-.022.017zm10.72-12.252h-2.405v1.576h2.405v8.066h-4.603c-.41.006-.819.037-1.223.105l-.457-1.786h.643v-1.575h-1.078l-1.928-7.258a13.315 13.315 0 0 1 4.209-.684h4.458v1.555h-.021z"/><path d="M-48.758 126.152h1.68v1.575h-1.68v-1.575zm10.948 4.728h1.74v-1.578h-9.537v1.578h4.043a4.832 4.832 0 1 1-.455 9.641h-2.405a3.164 3.164 0 0 0-.042 6.325v-1.578a1.596 1.596 0 1 1 .042-3.191h2.405a6.403 6.403 0 0 0 6.359-6.455 6.397 6.397 0 0 0-2.15-4.742zm-3.836-6.512h10.574v1.577h-10.574v-1.577zm-1.473 2.509h9.539v1.575h-9.539v-1.575zm-24.071 4.624h3.255v1.575h-3.255v-1.575z"/><path fill="#16946C" d="M-24.562 155.285c0-.484.392-.873.87-.873h5.289a3.644 3.644 0 0 0-.745-1.141c-.604-.684-1.306-1.553-1.306-3.17 0-1.619.724-2.492 1.306-3.176.577-.684.889-1.035.889-2.008 0-.975-.373-1.41-.889-2.014-.52-.602-1.306-1.535-1.306-3.17 0-1.641.724-2.492 1.306-3.176.577-.684.889-1.033.889-2.006 0-.979-.373-1.413-.889-2.015-.52-.601-1.306-1.556-1.306-3.173s.724-2.487 1.306-3.172c.577-.685.889-1.037.889-2.012s-.373-1.409-.889-2.01c-.52-.602-1.306-1.534-1.306-3.174 0-1.637.889-2.859 1.719-3.855 1.162-1.41 2.551-2.197 3.754-2.197h.04a4.064 4.064 0 0 1 3.898 5.287 2.629 2.629 0 0 0-.103.809c0 .953.372 1.408.892 2.01.519.602 1.305 1.535 1.305 3.174 0 1.637-.724 2.486-1.305 3.172-.581.684-.892 1.037-.892 2.011s.372 1.411.892 2.011c.519.604 1.305 1.535 1.305 3.172 0 1.641-.724 2.488-1.305 3.176-.581.684-.892 1.035-.892 2.008 0 .975.372 1.41.892 2.014.519.602 1.305 1.553 1.305 3.168 0 1.619-.724 2.494-1.305 3.178s-.892 1.033-.892 2.006c0 .977.372 1.412.892 2.014.519.604 1.016 1.225 1.225 2.281H.735a3.675 3.675 0 0 0-.746-1.141c-.603-.686-1.305-1.557-1.305-3.172s.724-2.486 1.305-3.174c.581-.684.892-1.033.892-2.01s-.372-1.41-.892-2.01c-.516-.602-1.305-1.535-1.305-3.174 0-1.637.724-2.486 1.305-3.172.581-.684.892-1.035.892-2.012 0-.975-.372-1.41-.892-2.012-.516-.602-1.305-1.555-1.305-3.172 0-1.098.684-2.551 1.824-3.878.581-.663 2.072-2.196 3.647-2.196h.041a4.066 4.066 0 0 1 4.083 4.047c0 .414-.062.824-.184 1.219a2.599 2.599 0 0 0-.103.809c0 .955.373 1.41.89 2.012.519.601 1.308 1.534 1.308 3.172 0 1.639-.727 2.486-1.308 3.17-.578.688-.89 1.037-.89 2.014s.373 1.41.89 2.01c.519.602 1.308 1.535 1.308 3.174 0 1.637-.727 2.486-1.308 3.172-.578.684-.89 1.035-.89 2.012 0 .975.373 1.41.89 2.01.519.6 1.019 1.225 1.224 2.281h1.182"/><path d="M3.471 144.355c0 1.619-.724 2.49-1.308 3.174-.578.684-.889 1.037-.889 2.01 0 .494-.398.893-.893.893s-.892-.398-.892-.893c0-1.619.728-2.488 1.306-3.172.581-.684.892-1.039.892-2.012s-.373-1.406-.892-2.01c-.517-.604-1.306-1.535-1.306-3.172 0-1.639.728-2.49 1.306-3.174.581-.684.892-1.037.892-2.01 0-.975-.373-1.41-.892-2.012-.517-.602-1.306-1.555-1.306-3.172a.891.891 0 1 1 1.785 0c0 .953.372 1.408.889 2.012.521.6 1.308 1.533 1.308 3.172 0 1.637-.724 2.488-1.308 3.172-.578.684-.889 1.037-.889 2.012 0 .973.372 1.41.889 2.01.522.604 1.308 1.553 1.308 3.172zm3.9 9.477h6.24a.868.868 0 0 1 .889.852v.018a.868.868 0 0 1-.87.871h-40.287a.892.892 0 0 1 0-1.782h5.289a3.644 3.644 0 0 0-.745-1.141c-.604-.684-1.309-1.555-1.309-3.172 0-1.619.728-2.49 1.309-3.174.578-.684.889-1.037.889-2.01s-.373-1.408-.889-2.012c-.52-.602-1.309-1.535-1.309-3.172 0-1.639.728-2.49 1.309-3.174.578-.684.889-1.037.889-2.01 0-.975-.373-1.41-.889-2.012-.52-.601-1.309-1.555-1.309-3.172s.728-2.488 1.309-3.174c.578-.684.889-1.035.889-2.01s-.373-1.409-.889-2.011c-.52-.601-1.309-1.556-1.309-3.173s.892-2.861 1.722-3.856c1.159-1.39 2.552-2.198 3.751-2.198h.043a4.067 4.067 0 0 1 4.081 4.049c.003.412-.06.823-.184 1.219a2.616 2.616 0 0 0-.103.807c0 .955.373 1.412.892 2.013.516.602 1.306 1.534 1.306 3.171 0 1.639-.728 2.49-1.306 3.174-.581.684-.892 1.036-.892 2.01 0 .977.373 1.411.892 2.013.516.601 1.306 1.533 1.306 3.171 0 1.639-.728 2.488-1.306 3.172-.581.684-.892 1.037-.892 2.014 0 .975.373 1.41.892 2.01.516.6 1.306 1.557 1.306 3.174 0 1.615-.728 2.486-1.306 3.17-.581.686-.892 1.037-.892 2.014 0 .975.373 1.41.892 2.01.516.6 1.017 1.221 1.225 2.281h9.764a3.63 3.63 0 0 0-.746-1.141c-.603-.684-1.305-1.555-1.305-3.172 0-1.619.724-2.49 1.305-3.174s.893-1.037.893-2.01-.373-1.408-.893-2.012c-.519-.602-1.305-1.535-1.305-3.172 0-1.639.724-2.49 1.305-3.174s.893-1.037.893-2.01c0-.975-.373-1.41-.893-2.012-.519-.601-1.305-1.555-1.305-3.172 0-1.099.684-2.551 1.824-3.877.581-.664 2.072-2.199 3.648-2.199h.04a4.07 4.07 0 0 1 4.083 4.049c0 .412-.062.824-.183 1.219a2.545 2.545 0 0 0-.103.809c0 .953.373 1.409.889 2.012.519.6 1.305 1.533 1.305 3.172 0 1.637-.724 2.488-1.305 3.172-.578.684-.889 1.039-.889 2.012s.373 1.41.889 2.01c.519.604 1.305 1.535 1.305 3.174 0 1.637-.724 2.488-1.305 3.172-.578.684-.889 1.039-.889 2.012s.373 1.41.889 2.01c.519.604 1.016 1.225 1.225 2.281h1.181m-22.163-.002a3.96 3.96 0 0 0-.746-1.139c-.603-.686-1.309-1.557-1.309-3.176 0-1.615.725-2.484 1.309-3.17.578-.684.889-1.037.889-2.014 0-.973-.373-1.41-.889-2.006-.52-.604-1.309-1.535-1.309-3.176 0-1.635.725-2.486 1.309-3.17.578-.684.889-1.039.889-2.014 0-.974-.373-1.41-.889-2.012-.52-.602-1.309-1.553-1.309-3.171s.725-2.489 1.309-3.153c.578-.662.889-1.035.889-2.01s-.373-1.409-.889-2.011c-.52-.601-1.309-1.556-1.309-3.173a4.51 4.51 0 0 1 .189-1.326 2.24 2.24 0 0 0-.335-2.013 2.268 2.268 0 0 0-1.865-.952h-.043c-1.492 0-3.711 2.82-3.711 4.291 0 .954.373 1.409.896 2.011.516.601 1.305 1.535 1.305 3.173s-.727 2.487-1.305 3.173c-.584.684-.896 1.036-.896 2.011s.373 1.409.896 2.012c.516.6 1.305 1.533 1.305 3.172 0 1.637-.727 2.488-1.305 3.172-.584.684-.896 1.039-.896 2.012s.373 1.41.896 2.01c.516.604 1.305 1.535 1.305 3.174 0 1.637-.727 2.488-1.305 3.172-.584.684-.896 1.039-.896 2.012s.373 1.41.896 2.01c.516.604 1.013 1.205 1.221 2.281h1.93a3.614 3.614 0 0 0-.748-1.139c-.601-.686-1.306-1.535-1.306-3.176 0-1.635.725-2.484 1.306-3.17.581-.684.892-1.037.892-2.014 0-.973-.373-1.41-.892-2.006-.52-.604-1.306-1.535-1.306-3.176 0-1.635.725-2.486 1.306-3.17s.892-1.039.892-2.014c0-.974-.373-1.41-.892-2.012-.52-.602-1.306-1.533-1.306-3.171s.725-2.489 1.306-3.173.892-1.036.892-2.011c0-.976-.373-1.411-.892-2.013-.52-.601-1.306-1.533-1.306-3.17a.89.89 0 1 1 1.781 0c0 .974.376 1.408.896 2.01.516.602 1.305 1.535 1.305 3.173s-.727 2.487-1.305 3.171c-.581.686-.896 1.037-.896 2.013 0 .974.376 1.409.896 2.011.516.602 1.305 1.535 1.305 3.172 0 1.641-.727 2.488-1.305 3.172-.581.688-.896 1.039-.896 2.012 0 .975.376 1.41.896 2.014.516.6 1.305 1.535 1.305 3.168 0 1.643-.727 2.49-1.305 3.178-.581.684-.896 1.033-.896 2.006 0 .977.376 1.412.896 2.014.516.6 1.013 1.225 1.222 2.281l1.928.02zm19.136 0a3.875 3.875 0 0 0-.745-1.139c-.604-.686-1.306-1.557-1.306-3.176 0-1.615.725-2.484 1.306-3.17.581-.684.892-1.037.892-2.014 0-.973-.376-1.41-.892-2.006-.52-.604-1.306-1.535-1.306-3.176 0-1.635.725-2.486 1.306-3.17s.892-1.039.892-2.014c0-.974-.376-1.41-.892-2.012-.52-.602-1.306-1.553-1.306-3.171a4.354 4.354 0 0 1 .187-1.327 2.268 2.268 0 0 0-.332-2.012 2.287 2.287 0 0 0-1.868-.953H1.19c-1.246 0-3.714 2.841-3.714 4.292 0 .954.376 1.409.895 2.011.517.602 1.306 1.535 1.306 3.172 0 1.641-.728 2.488-1.306 3.172-.581.688-.895 1.039-.895 2.012 0 .975.376 1.41.895 2.014.517.6 1.306 1.553 1.306 3.168 0 1.619-.728 2.49-1.306 3.178-.581.684-.895 1.033-.895 2.006 0 .977.376 1.412.895 2.014.517.6 1.014 1.201 1.225 2.281l5.699.02z"/></svg>