<svg xmlns="http://www.w3.org/2000/svg" width="64" height="56.32" viewBox="-85.5 112.52 100 88"><path fill="#E84545" d="M-11.706 161.926c1.578-1.896 1.719-6.266 1.719-6.266 0-.652.529-1.182 1.181-1.182H2.4a1.18 1.18 0 0 0 1.182-1.182v-1.754c0-.653.53-1.182 1.185-1.182h1.861c.651 0 1.182-.53 1.182-1.182v-2.292c0-.653.53-1.182 1.182-1.182h2.148a1.18 1.18 0 0 0 1.182-1.181v-2.148a1.18 1.18 0 0 0-1.182-1.182h-65.167l-8.378 2.148a.922.922 0 0 0-.395.179l-5.12 3.544-.215.215-8.522 9.848c-.146.16-.247.357-.286.574l-1.719 10.561c-.044.217-.021.443.072.646l4.548 11.67c.075.184.197.348.357.465l8.736 7.344a1.178 1.178 0 0 0 1.647-.146l.107-.105a1.22 1.22 0 0 0 .144-1.076l-3.222-8.77a1.182 1.182 0 0 1-.037-.752l2.077-6.984c.074-.244.225-.455.43-.607l5.157-3.902c.137-.105.295-.178.464-.217l6.983-1.291h17.868l15.68.256c.792 0 4.371-.97 5.945-2.867z"/><path fill="#E84545" d="M-64.197 188.782a1.31 1.31 0 0 1-.824-.322l-8.701-7.305a1.208 1.208 0 0 1-.357-.502l-4.619-11.709a1.104 1.104 0 0 1-.072-.68l1.719-10.561c.031-.238.131-.463.286-.646l8.557-9.881.25-.217 5.121-3.544c.125-.104.271-.179.43-.216l8.378-2.111h65.24c.709 0 1.287.576 1.287 1.289v2.113c0 .71-.578 1.287-1.287 1.287h-2.15c-.613 0-1.107.497-1.107 1.11v2.256a1.29 1.29 0 0 1-1.291 1.29h-1.86a1.11 1.11 0 0 0-1.111 1.109v1.719c0 .711-.575 1.289-1.29 1.289H-8.807c-.612 0-1.108.496-1.108 1.109 0 .179-.144 4.439-1.721 6.336-1.574 1.9-5.262 2.902-6.016 2.902l-15.68-.252h-17.833l-6.981 1.289a1.064 1.064 0 0 0-.429.217l-5.157 3.865a1.113 1.113 0 0 0-.394.537l-2.077 7.018c-.07.236-.057.49.037.719l3.222 8.77c.132.402.065.84-.179 1.182l-.107.109a1.286 1.286 0 0 1-.967.431zm75.41-47.515h-65.24l-8.378 2.185-.358.178-5.121 3.547-.214.178-8.487 9.883c-.132.15-.219.338-.25.537l-1.718 10.564a.94.94 0 0 0 .07.572l4.548 11.67c.067.172.179.318.322.434l8.736 7.338a1.074 1.074 0 0 0 1.517-.084c.008-.006.016-.012.024-.025l.072-.105c.206-.291.259-.668.142-1.002l-3.222-8.771a1.294 1.294 0 0 1-.037-.824l2.077-7.018c.077-.275.24-.512.466-.684l5.155-3.902c.147-.121.318-.203.501-.248l6.983-1.289h17.868l15.68.248c.645-.035 4.298-.93 5.876-2.828 1.573-1.898 1.682-6.193 1.682-6.23 0-.712.579-1.288 1.287-1.288H2.4a1.11 1.11 0 0 0 1.111-1.109v-1.72c0-.711.577-1.288 1.29-1.288h1.86c.613 0 1.112-.498 1.112-1.11v-2.185c0-.712.577-1.288 1.286-1.288h2.152c.612 0 1.108-.497 1.108-1.109v-2.113c0-.6-.477-1.092-1.076-1.11h-.03z"/><path d="M-31.897 158.522v-18.975h42.894v-2.898h-13.5l.253-.217a10.28 10.28 0 0 0 2.898-7.482c-.179-5.514-4.978-9.99-10.706-9.99h-13.64a.753.753 0 0 1-.754-.752.791.791 0 0 1 .754-.752h3.685v-2.936h-3.685a3.686 3.686 0 0 0-3.308 4.033 3.69 3.69 0 0 0 3.308 3.307h13.64c4.154 0 7.664 3.223 7.771 7.162a7.418 7.418 0 0 1-2.078 5.371 7.342 7.342 0 0 1-5.297 2.256h-46.515a27.767 27.767 0 0 0-19.692 8.307 26 26 0 0 0-7.628 18.836c.286 13.914 11.305 25.23 25.208 25.885h.107a10.316 10.316 0 0 0 10.204 8.844h11.781v-1.465a10.306 10.306 0 0 0-5.048-8.844 10.281 10.281 0 0 0 5.048-8.846v-1.469H-47.94a10.314 10.314 0 0 0-10.205 8.807c-6.336-.658-11.019-6.211-10.599-12.568.395-6.193 5.8-11.062 12.282-11.062h34.982a8.842 8.842 0 0 0 8.841-8.844h-2.898a5.905 5.905 0 0 1-5.872 5.941H-45.04v-11.527h2.899v-2.899h-2.899v-6.196h10.24v10.636h-4.44v2.899h4.44v5.408l2.903.03zm-7.308 37.17h-8.736a7.413 7.413 0 0 1-6.804-4.473l4.583 2.754 1.504-2.506-2.899-1.717h5.083a7.444 7.444 0 0 1 7.269 5.942zm-8.735-14.824h8.736a7.411 7.411 0 0 1-7.269 5.945h-5.083l2.899-1.719-1.504-2.51-4.583 2.76a7.386 7.386 0 0 1 6.804-4.476zm-32.619-17.116a23.035 23.035 0 0 1 .822-6.551l5.98 5.977-2.65 2.65 2.042 2.043 2.648-2.65 2.186 2.186a14.314 14.314 0 0 0-2.114 6.373h-6.445a22.899 22.899 0 0 1-2.47-9.988v-.04zm7.088 16.366a23.178 23.178 0 0 1-2.899-3.402h4.797a14.369 14.369 0 0 0 2.686 6.91 23.509 23.509 0 0 1-4.584-3.508zm5.765-15.004l-4.117-4.152 1.934-1.934-2.041-2.043-1.934 1.934-4.762-4.725a23.847 23.847 0 0 1 4.87-7.162 25.154 25.154 0 0 1 7.125-5.12l.824 3.044-2.435 2.398 2.041 2.041 1.253-1.254 3.437 12.926a15.176 15.176 0 0 0-6.194 4.01v.037zm19.728-22.666h-4.439v2.901h4.439v14.896h-8.484a14.94 14.94 0 0 0-2.256.178l-.859-3.258h1.182v-2.899h-1.933l-3.581-13.428a24.588 24.588 0 0 1 7.77-1.29h8.199v2.9h-.038z"/><path d="M-23.021 144.418h3.116v2.899h-3.116v-2.899zm20.198 8.702H.396v-2.901h-17.58v2.901h7.448c4.905.438 8.521 4.771 8.085 9.676a8.91 8.91 0 0 1-8.943 8.119H-15a5.83 5.83 0 0 0-5.868 5.801 5.829 5.829 0 0 0 5.798 5.869v-2.898a2.936 2.936 0 1 1 .071-5.873h4.441c6.526-.033 11.784-5.354 11.75-11.879a11.81 11.81 0 0 0-3.981-8.779l-.034-.036zm-7.018-11.996H9.705v2.9H-9.841v-2.9zm-2.723 4.62H5.019v2.899h-17.583v-2.899zm-44.507 8.521h5.979v2.899h-5.979v-2.899z"/></svg>